<?xml version="1.0" standalone="no"?><!DOCTYPE svg PUBLIC "-//W3C//DTD SVG 1.1//EN" "http://www.w3.org/Graphics/SVG/1.1/DTD/svg11.dtd"><svg t="1706625652372" class="icon" viewBox="0 0 1024 1024" version="1.1" xmlns="http://www.w3.org/2000/svg" p-id="13313" xmlns:xlink="http://www.w3.org/1999/xlink" width="200" height="200"><path d="M511.999488 947.106726c127.038348 0 241.37235-47.64002 327.123363-127.038348-34.935674-85.751013-165.149341-149.270698-327.123363-149.270699s-295.364031 63.518662-327.123362 149.270699c85.74999 79.399351 200.085014 127.038348 327.123362 127.038348z" fill="#409eff" p-id="13314"></path><path d="M588.222497 677.150364s-6.351662 47.64002-73.046666 47.64002-73.046666-47.64002-73.046667-47.64002v-85.751013h149.270699l-3.177366 85.751013z" fill="#F6D0C8" p-id="13315"></path><path d="M311.914474 356.37764c-28.584012 28.584012-6.352685 117.510344 31.759331 107.98234 0 0 85.751013 171.502026 165.150364 171.502026 79.398328 0 139.742694-123.862006 155.62236-161.974022 0 0 38.112016-22.23235 47.638997-76.223009 6.352685-53.991682-38.112016-53.991682-38.112016-53.991681l-47.638997-155.622361h-155.62236l-123.863029 53.991682-31.759331 63.519686 38.112016 101.630678c0-3.175319-9.528004-82.57467-41.287335-50.815339" fill="#FCE7E3" p-id="13316"></path><path d="M356.377128 407.194002c-6.352685-9.528004-19.056008-25.40767-19.056008-47.638996l-9.528004 6.351661c-3.176342 0-6.352685 0-6.352685-3.176342 0-12.704346-6.351662-38.112016-6.351661-57.167001-3.176342-28.584012 19.056008-111.158682 69.871347-155.62236 47.638997-38.112016 120.686686-73.04769 120.686686-73.04769s117.510344 38.112016 165.150365 92.102675c47.64002 53.991682 47.64002 146.094356 31.760354 177.853687-15.879666 15.879666-22.23235-22.23235-22.23235 0 0 15.879666-3.176342 34.935674-6.351662 47.638997 0 3.176342-3.176342 3.176342-3.176342 0-6.351662-19.056008-28.584012-76.223009-22.231328-107.98234 6.351662-38.110993-38.112016-47.638997-63.519685-31.759331-22.231327 15.879666-38.110993 15.879666-69.871348 15.879665-31.759331 0-69.871347-38.110993-101.630678-31.759331s-53.991682 25.40767-47.638997 63.519686c6.351662 38.110993 0 85.751013-3.176342 104.805997h-6.351662" fill="#5E677E" p-id="13317"></path></svg>